# This file uses centimeters as units for non-parametric coordinates.

mtllib test.mtl
g default
v -12.378803 1.132499 11.869952
v 12.222050 1.132499 11.869952
v -12.378803 1.594627 11.869952
v 12.222050 1.594627 11.869952
v -12.378803 1.594627 -11.535440
v 12.222050 1.594627 -11.535440
v -12.378803 1.132499 -11.535440
v 12.222050 1.132499 -11.535440
vt 0.375000 0.000000
vt 0.625000 0.000000
vt 0.375000 0.250000
vt 0.625000 0.250000
vt 0.375000 0.500000
vt 0.625000 0.500000
vt 0.375000 0.750000
vt 0.625000 0.750000
vt 0.375000 1.000000
vt 0.625000 1.000000
vt 0.875000 0.000000
vt 0.875000 0.250000
vt 0.125000 0.000000
vt 0.125000 0.250000
vn 0.000000 0.000000 1.000000
vn 0.000000 0.000000 1.000000
vn 0.000000 0.000000 1.000000
vn 0.000000 0.000000 1.000000
vn 0.000000 1.000000 0.000000
vn 0.000000 1.000000 0.000000
vn 0.000000 1.000000 0.000000
vn 0.000000 1.000000 0.000000
vn 0.000000 0.000000 -1.000000
vn 0.000000 0.000000 -1.000000
vn 0.000000 0.000000 -1.000000
vn 0.000000 0.000000 -1.000000
vn 0.000000 -1.000000 0.000000
vn 0.000000 -1.000000 0.000000
vn 0.000000 -1.000000 0.000000
vn 0.000000 -1.000000 0.000000
vn 1.000000 0.000000 0.000000
vn 1.000000 0.000000 0.000000
vn 1.000000 0.000000 0.000000
vn 1.000000 0.000000 0.000000
vn -1.000000 0.000000 0.000000
vn -1.000000 0.000000 0.000000
vn -1.000000 0.000000 0.000000
vn -1.000000 0.000000 0.000000
s off
g pCube1
usemtl initialShadingGroup
f 1/1/1 2/2/2 4/4/3 3/3/4
f 3/3/5 4/4/6 6/6/7 5/5/8
f 5/5/9 6/6/10 8/8/11 7/7/12
f 7/7/13 8/8/14 2/10/15 1/9/16
f 2/2/17 8/11/18 6/12/19 4/4/20
f 7/13/21 1/1/22 3/3/23 5/14/24
g default
v -12.514392 -6.714546 -6.674179
v -4.895089 -6.714546 -6.674179
v -12.514392 0.000000 -6.674179
v -4.895089 0.000000 -6.674179
v -12.514392 0.000000 -11.597332
v -5.029807 0.000000 -11.597332
v -12.514392 -6.714546 -11.597332
v -5.029807 -6.714546 -11.597332
v 10.531346 -0.057259 -11.597332
v 6.901457 -0.057259 -6.674179
v 12.604899 0.114134 -11.597332
v 8.975012 0.114134 -6.674179
v -12.514392 -6.714546 11.299244
v -8.659694 -6.714546 11.299244
v -8.659694 0.000000 11.299244
v -12.514392 0.000000 11.299244
v -4.895089 -6.714545 6.835270
v -12.514392 -6.714545 6.835270
v -12.514392 -0.000000 6.835270
v -4.895089 -0.000000 6.835270
v 11.187483 -0.000000 6.835270
v 11.187483 -6.714545 6.835270
v 11.187483 0.000000 11.299244
v 11.187483 -6.714546 11.299244
v 4.389442 -6.714545 6.835270
v 2.798157 -6.714546 11.299244
v 2.798157 0.000000 11.299244
v 4.389442 -0.000000 6.835270
v 3.593800 -6.714545 9.067257
v 2.798157 -3.357273 11.299244
v 3.593800 -0.000000 9.067257
v 4.389442 -3.357273 6.835270
v 4.389442 -3.357273 -1.613266
v 4.389442 -6.714545 -1.613266
v 4.389442 -0.000000 -1.613266
v 11.187483 -0.000000 -1.613266
v 11.187483 -6.714545 -1.613266
v 11.187483 -6.714545 1.959174
v 11.187483 -0.000000 1.959174
v 4.389443 -0.000000 1.959174
v 4.389443 -3.357273 1.959174
v 4.389443 -6.714545 1.959174
v -5.164799 -0.000000 1.959177
v -5.164799 -3.357273 1.959177
v -5.164800 -0.000000 -1.613263
v -5.164800 -3.357273 -1.613263
v -5.164799 -3.357273 1.959177
v -5.164799 -6.714545 1.959177
v -5.164800 -3.357273 -1.613263
v -5.164800 -6.714545 -1.613263
v 7.551327 -6.714545 -1.613266
v 7.551327 -6.714545 1.959174
v 7.551327 -6.714545 6.835270
v 7.551327 -12.408072 -14.971789
v 11.187483 -12.408072 -14.971789
v 7.551327 -12.408072 -18.544230
v 11.187483 -12.408072 -18.544230
vt 0.375000 0.000000
vt 0.625000 0.000000
vt 0.375000 0.250000
vt 0.625000 0.250000
vt 0.375000 0.500000
vt 0.625000 0.500000
vt 0.375000 0.750000
vt 0.625000 0.750000
vt 0.375000 1.000000
vt 0.625000 1.000000
vt 0.875000 0.000000
vt 0.875000 0.250000
vt 0.125000 0.000000
vt 0.125000 0.250000
vt 0.625000 0.000000
vt 0.875000 0.000000
vt 0.875000 0.250000
vt 0.625000 0.250000
vt 0.375000 0.000000
vt 0.625000 0.000000
vt 0.625000 0.250000
vt 0.375000 0.250000
vt 0.625000 0.000000
vt 0.375000 0.000000
vt 0.375000 0.250000
vt 0.625000 0.250000
vt 0.625000 0.000000
vt 0.625000 0.250000
vt 0.625000 0.250000
vt 0.625000 0.000000
vt 0.625000 0.000000
vt 0.625000 0.000000
vt 0.625000 0.250000
vt 0.625000 0.250000
vt 0.625000 0.000000
vt 0.625000 0.125000
vt 0.625000 0.250000
vt 0.625000 0.125000
vt 0.625000 0.000000
vt 0.625000 0.125000
vt 0.625000 0.250000
vt 0.625000 0.250000
vt 0.625000 0.000000
vt 0.625000 0.000000
vt 0.625000 0.250000
vt 0.625000 0.250000
vt 0.625000 0.125000
vt 0.625000 0.000000
vt 0.625000 0.125000
vt 0.625000 0.250000
vt 0.625000 0.250000
vt 0.625000 0.125000
vt 0.625000 0.000000
vt 0.625000 0.125000
vt 0.625000 0.125000
vt 0.625000 0.000000
vt 0.625000 0.000000
vt 0.625000 0.000000
vt 0.625000 0.000000
vt 0.625000 0.000000
vt 0.625000 0.000000
vt 0.625000 0.000000
vt 0.625000 0.000000
vn 0.000000 0.000000 1.000000
vn 0.000000 0.000000 1.000000
vn 0.000000 0.000000 1.000000
vn 0.000000 0.000000 1.000000
vn 0.000000 1.000000 0.000000
vn 0.000000 1.000000 0.000000
vn 0.000000 1.000000 -0.000000
vn 0.000000 1.000000 -0.000000
vn 0.000000 0.000000 -1.000000
vn 0.000000 0.000000 -1.000000
vn 0.000000 0.000000 -1.000000
vn 0.000000 0.000000 -1.000000
vn 0.000000 -1.000000 -0.000000
vn 0.000000 -1.000000 -0.000000
vn 0.000000 -1.000000 0.000000
vn 0.000000 -1.000000 0.000000
vn 0.082224 -0.994768 0.060624
vn 0.082224 -0.994768 0.060624
vn 0.082224 -0.994768 0.060624
vn 0.082224 -0.994768 0.060624
vn -1.000000 0.000000 0.000000
vn -1.000000 0.000000 0.000000
vn -1.000000 0.000000 0.000000
vn -1.000000 0.000000 0.000000
vn 0.432424 -0.888509 0.153499
vn 0.432424 -0.888509 0.153499
vn 0.432424 -0.888509 0.153499
vn 0.432424 -0.888509 0.153499
vn 0.000000 0.000000 -1.000000
vn 0.000000 0.000000 -1.000000
vn 0.000000 0.000000 -1.000000
vn 0.000000 0.000000 -1.000000
vn -0.007245 0.999970 -0.002572
vn -0.007245 0.999970 -0.002572
vn -0.007245 0.999970 -0.002572
vn -0.007245 0.999970 -0.002572
vn 0.000000 0.000000 1.000000
vn 0.000000 0.000000 1.000000
vn 0.000000 0.000000 1.000000
vn 0.000000 0.000000 1.000000
vn 0.000000 -1.000000 0.000000
vn 0.000000 -1.000000 0.000000
vn 1.000000 0.000000 0.000000
vn 1.000000 0.000000 0.000000
vn 1.000000 0.000000 0.000000
vn 1.000000 0.000000 0.000000
vn 0.000000 1.000000 0.000000
vn 0.000000 1.000000 0.000000
vn -1.000000 0.000000 0.000000
vn -1.000000 0.000000 0.000000
vn 0.000000 -1.000000 -0.000000
vn 0.000000 -1.000000 -0.000000
vn -1.000000 0.000000 0.000000
vn -1.000000 0.000000 0.000000
vn 0.000000 1.000000 -0.000000
vn 0.000000 1.000000 -0.000000
vn 1.000000 0.000000 0.000000
vn 1.000000 0.000000 0.000000
vn 1.000000 0.000000 0.000000
vn 1.000000 0.000000 0.000000
vn -0.000000 0.000000 -1.000000
vn -0.000000 0.000000 -1.000000
vn -0.000000 0.000000 -1.000000
vn -0.000000 0.000000 -1.000000
vn -0.000000 0.000000 -1.000000
vn 0.000000 1.000000 -0.000000
vn 0.000000 1.000000 -0.000000
vn 0.000000 1.000000 -0.000000
vn 0.000000 1.000000 -0.000000
vn -0.000000 1.000000 -0.000000
vn 0.000000 0.000000 1.000000
vn 0.000000 0.000000 1.000000
vn 0.000000 0.000000 1.000000
vn 0.000000 0.000000 1.000000
vn 0.000000 0.000000 1.000000
vn 0.000000 -1.000000 -0.000000
vn 0.000000 -1.000000 -0.000000
vn -0.000000 -1.000000 -0.000000
vn 0.000000 -1.000000 -0.000000
vn 0.000000 -1.000000 -0.000000
vn -0.000000 -1.000000 -0.000000
vn -0.000000 -1.000000 -0.000000
vn -0.000000 -1.000000 -0.000000
vn 0.000000 0.000000 1.000000
vn 0.000000 0.000000 1.000000
vn -0.000000 1.000000 -0.000000
vn -0.000000 1.000000 -0.000000
vn -0.000000 0.000000 -1.000000
vn -0.000000 0.000000 -1.000000
vn -0.000000 0.000000 -1.000000
vn 0.000000 0.000000 -1.000000
vn 0.000000 0.000000 -1.000000
vn 0.000000 0.000000 -1.000000
vn -1.000000 0.000000 -0.000000
vn -1.000000 0.000000 -0.000000
vn -1.000000 0.000000 -0.000000
vn -1.000000 0.000000 -0.000000
vn -1.000000 0.000000 -0.000000
vn -1.000000 0.000000 -0.000000
vn 0.000000 1.000000 -0.000000
vn 0.000000 1.000000 0.000000
vn 1.000000 0.000000 0.000000
vn 1.000000 0.000000 0.000000
vn 0.000000 -1.000000 0.000000
vn 0.000000 -1.000000 0.000000
vn 1.000000 0.000000 0.000000
vn 1.000000 0.000000 0.000000
vn 0.000000 1.000000 0.000000
vn 0.000000 1.000000 0.000000
vn -1.000000 0.000000 0.000000
vn -1.000000 0.000000 0.000000
vn -1.000000 0.000000 0.000000
vn -1.000000 0.000000 0.000000
vn -1.000000 0.000000 0.000000
vn -1.000000 0.000000 0.000000
vn -1.000000 0.000000 0.000000
vn -1.000000 0.000000 0.000000
vn 0.000000 -1.000000 0.000000
vn 0.000000 -1.000000 0.000000
vn 0.000000 0.000000 1.000000
vn 0.000000 0.000000 1.000000
vn 0.000000 0.000000 1.000000
vn 0.000000 0.000000 1.000000
vn 0.000000 1.000000 0.000000
vn 0.000000 1.000000 0.000000
vn -0.000000 0.000000 -1.000000
vn -0.000000 0.000000 -1.000000
vn 0.000000 -1.000000 0.000000
vn 0.000000 -1.000000 0.000000
vn 0.000000 -1.000000 0.000000
vn 0.000000 -1.000000 0.000000
vn 0.000000 0.000000 1.000000
vn 0.000000 0.000000 1.000000
vn 0.000000 0.000000 1.000000
vn 0.000000 0.000000 1.000000
vn 0.000000 1.000000 0.000000
vn 0.000000 1.000000 0.000000
vn 0.000000 1.000000 0.000000
vn 0.000000 1.000000 0.000000
vn -0.000000 0.000000 -1.000000
vn -0.000000 0.000000 -1.000000
vn 0.000000 -1.000000 0.000000
vn 0.000000 -1.000000 0.000000
vn 0.000000 -1.000000 0.000000
vn 0.000000 -1.000000 0.000000
vn 0.000000 -1.000000 0.000000
vn 0.000000 -1.000000 0.000000
vn 0.000000 -1.000000 0.000000
vn 0.000000 -0.947842 0.318739
vn 0.000000 -0.947842 0.318739
vn 0.000000 -0.947842 0.318739
vn 0.000000 -0.947842 0.318739
vn -1.000000 0.000000 0.000000
vn -1.000000 0.000000 0.000000
vn -1.000000 0.000000 0.000000
vn -1.000000 0.000000 0.000000
vn 0.000000 0.947842 -0.318739
vn 0.000000 0.947842 -0.318739
vn 0.000000 0.947842 -0.318739
vn 0.000000 0.947842 -0.318739
vn 1.000000 0.000002 0.000000
vn 1.000000 0.000002 0.000000
vn 1.000000 0.000002 0.000000
vn 1.000000 0.000002 0.000000
s off
g pCube2
usemtl initialShadingGroup
f 21/33/25 22/34/26 23/35/27 24/36/28
s 1
f 11/17/29 12/18/30 14/20/31 13/19/32
s off
f 13/19/33 14/20/34 16/22/35 15/21/36
s 2
f 15/21/37 16/22/38 10/24/39 9/23/40
s off
f 18/29/41 17/30/42 19/31/43 20/32/44
s 3
f 15/27/45 9/15/46 11/17/47 13/28/48
s off
f 10/16/49 16/25/50 17/30/51 18/29/52
f 16/25/53 14/26/54 19/31/55 17/30/56
f 14/26/57 12/18/58 20/32/59 19/31/60
f 12/18/61 10/16/62 18/29/63 20/32/64
s 2
f 9/15/40 10/16/39 25/37/65 26/38/66
s off
f 10/16/67 12/18/68 28/40/69 25/37/70
s 1
f 12/18/30 11/17/29 27/39/71 28/40/72
s 3
f 11/17/47 9/15/46 26/38/73 27/39/74
s 2
f 26/38/66 25/37/65 22/34/75 21/33/76
s 3
f 27/39/74 26/38/73 21/33/77 24/36/78
s 1
f 28/40/72 27/39/71 24/36/79 23/35/80
s 4
f 30/41/81 29/42/82 31/43/83 32/44/84
s off
f 25/37/85 28/40/86 36/48/87 40/52/88 33/45/89
s 5
f 28/40/90 23/35/91 35/47/92 39/51/93 36/48/94
s 6
f 23/35/95 22/34/96 34/46/97 38/50/98 35/47/99
s 7
f 22/34/100 25/37/101 33/45/102 37/49/103 34/46/104
f 34/46/104 37/49/103 33/45/102 61/73/105 30/41/106 32/44/107
s 6
f 35/47/99 38/50/98 34/46/97 32/44/108 31/43/109
s 5
f 36/48/94 39/51/93 35/47/92 31/43/110 29/42/111
s 8
f 42/53/112 41/54/113 43/55/114 44/56/115 45/57/116 59/71/117
s 9
f 33/45/118 40/52/119 49/61/120 50/62/121
f 40/52/119 36/48/122 48/60/123 49/61/120
s 5
f 36/48/94 29/42/111 47/59/124 48/60/125
s 4
f 29/42/82 30/41/81 46/58/126 47/59/127
s 7
f 61/73/105 33/45/102 50/62/128 60/72/129
s 4
f 47/59/127 46/58/126 45/57/130 44/56/131
s 5
f 48/60/125 47/59/124 44/56/132 43/55/133
s off
f 52/63/134 51/64/135 53/65/136 54/66/137
f 56/67/138 55/68/139 57/69/140 58/70/141
s 7
f 60/72/129 50/62/128 42/53/142 59/71/143
s off
f 49/61/144 48/60/145 51/64/146 52/63/147
s 5
f 48/60/125 43/55/133 53/65/148 51/64/149
s 8
f 43/55/114 41/54/113 54/66/150 53/65/151
s off
f 41/54/152 49/61/153 52/63/154 54/66/155
f 50/62/156 49/61/157 55/68/158 56/67/159
f 49/61/160 41/54/161 57/69/162 55/68/163
s 8
f 41/54/113 42/53/112 58/70/164 57/69/165
s 7
f 42/53/142 50/62/128 56/67/166 58/70/167
s off
f 63/74/168 62/75/169 64/76/170 65/77/171
s 7
f 30/41/106 61/73/105 60/72/129 46/58/172
s off
f 46/58/173 60/72/174 62/75/175 63/74/176
f 60/72/177 59/71/178 64/76/179 62/75/180
f 59/71/181 45/57/182 65/77/183 64/76/184
f 45/57/185 46/58/186 63/74/187 65/77/188
